<svg width="79" height="100" viewBox="0 0 24 14" fill="none" xmlns="http://www.w3.org/2000/svg">
<path d="M12 0C11.0717 0 10.1815 0.368749 9.52513 1.02513C8.86875 1.6815 8.5 2.57174 8.5 3.5C8.5 4.42826 8.86875 5.3185 9.52513 5.97487C10.1815 6.63125 11.0717 7 12 7C12.9283 7 13.8185 6.63125 14.4749 5.97487C15.1313 5.3185 15.5 4.42826 15.5 3.5C15.5 2.57174 15.1313 1.6815 14.4749 1.02513C13.8185 0.368749 12.9283 0 12 0V0ZM12 2C12.3978 2 12.7794 2.15804 13.0607 2.43934C13.342 2.72064 13.5 3.10218 13.5 3.5C13.5 3.89782 13.342 4.27936 13.0607 4.56066C12.7794 4.84196 12.3978 5 12 5C11.6022 5 11.2206 4.84196 10.9393 4.56066C10.658 4.27936 10.5 3.89782 10.5 3.5C10.5 3.10218 10.658 2.72064 10.9393 2.43934C11.2206 2.15804 11.6022 2 12 2ZM5.5 3C4.83696 3 4.20107 3.26339 3.73223 3.73223C3.26339 4.20107 3 4.83696 3 5.5C3 6.44 3.53 7.25 4.29 7.68C4.65 7.88 5.06 8 5.5 8C5.94 8 6.35 7.88 6.71 7.68C7.08 7.47 7.39 7.17 7.62 6.81C6.89148 5.86057 6.49767 4.69672 6.5 3.5V3.22C6.2 3.08 5.86 3 5.5 3ZM18.5 3C18.14 3 17.8 3.08 17.5 3.22V3.5C17.5 4.7 17.11 5.86 16.38 6.81C16.5 7 16.63 7.15 16.78 7.3C17.2412 7.7471 17.8577 7.99802 18.5 8C18.94 8 19.35 7.88 19.71 7.68C20.47 7.25 21 6.44 21 5.5C21 4.83696 20.7366 4.20107 20.2678 3.73223C19.7989 3.26339 19.163 3 18.5 3V3ZM12 9C9.66 9 5 10.17 5 12.5V14H19V12.5C19 10.17 14.34 9 12 9ZM4.71 9.55C2.78 9.78 0 10.76 0 12.5V14H3V12.07C3 11.06 3.69 10.22 4.71 9.55ZM19.29 9.55C20.31 10.22 21 11.06 21 12.07V14H24V12.5C24 10.76 21.22 9.78 19.29 9.55ZM12 11C13.53 11 15.24 11.5 16.23 12H7.77C8.76 11.5 10.47 11 12 11Z" fill="#80ED99"/>
</svg>
