<svg width="79" height="100" viewBox="0 0 204 221" fill="none" xmlns="http://www.w3.org/2000/svg">
<path d="M64 110V94C64 92.4087 64.6321 90.8826 65.7574 89.7574C66.8826 88.6321 68.4087 88 70 88C71.5913 88 73.1174 88.6321 74.2426 89.7574C75.3679 90.8826 76 92.4087 76 94V110C76 111.591 75.3679 113.117 74.2426 114.243C73.1174 115.368 71.5913 116 70 116C68.4087 116 66.8826 115.368 65.7574 114.243C64.6321 113.117 64 111.591 64 110ZM102 116C103.591 116 105.117 115.368 106.243 114.243C107.368 113.117 108 111.591 108 110V86C108 84.4087 107.368 82.8826 106.243 81.7574C105.117 80.6321 103.591 80 102 80C100.409 80 98.8826 80.6321 97.7574 81.7574C96.6321 82.8826 96 84.4087 96 86V110C96 111.591 96.6321 113.117 97.7574 114.243C98.8826 115.368 100.409 116 102 116ZM134 116C135.591 116 137.117 115.368 138.243 114.243C139.368 113.117 140 111.591 140 110V78C140 76.4087 139.368 74.8826 138.243 73.7574C137.117 72.6321 135.591 72 134 72C132.409 72 130.883 72.6321 129.757 73.7574C128.632 74.8826 128 76.4087 128 78V110C128 111.591 128.632 113.117 129.757 114.243C130.883 115.368 132.409 116 134 116ZM188 44V144H198C199.591 144 201.117 144.632 202.243 145.757C203.368 146.883 204 148.409 204 150C204 151.591 203.368 153.117 202.243 154.243C201.117 155.368 199.591 156 198 156H108V176.838C113.109 178.286 117.521 181.533 120.424 185.98C123.326 190.427 124.522 195.773 123.791 201.033C123.059 206.292 120.451 211.11 116.446 214.597C112.441 218.083 107.31 220.004 102 220.004C96.6899 220.004 91.5591 218.083 87.5541 214.597C83.5492 211.11 80.9406 206.292 80.2095 201.033C79.4784 195.773 80.6743 190.427 83.5765 185.98C86.4787 181.533 90.8912 178.286 96 176.838V156H6C4.4087 156 2.88258 155.368 1.75736 154.243C0.63214 153.117 0 151.591 0 150C0 148.409 0.63214 146.883 1.75736 145.757C2.88258 144.632 4.4087 144 6 144H16V44H14C10.2883 43.9958 6.72977 42.5194 4.10518 39.8948C1.48059 37.2702 0.00423472 33.7117 0 30V14C0.00423472 10.2883 1.48059 6.72977 4.10518 4.10518C6.72977 1.48059 10.2883 0.00423472 14 0H190C193.712 0.00423472 197.27 1.48059 199.895 4.10518C202.519 6.72977 203.996 10.2883 204 14V30C203.996 33.7117 202.519 37.2702 199.895 39.8948C197.27 42.5194 193.712 43.9958 190 44H188ZM102 188C100.022 188 98.0888 188.586 96.4443 189.685C94.7998 190.784 93.5181 192.346 92.7612 194.173C92.0043 196 91.8063 198.011 92.1921 199.951C92.578 201.891 93.5304 203.673 94.9289 205.071C96.3275 206.47 98.1093 207.422 100.049 207.808C101.989 208.194 104 207.996 105.827 207.239C107.654 206.482 109.216 205.2 110.315 203.556C111.414 201.911 112 199.978 112 198C111.997 195.349 110.942 192.807 109.068 190.932C107.193 189.058 104.651 188.003 102 188V188ZM14 32H190C190.53 31.9992 191.038 31.7882 191.413 31.4133C191.788 31.0384 191.999 30.5302 192 30V14C191.999 13.4698 191.788 12.9616 191.413 12.5867C191.038 12.2118 190.53 12.0008 190 12H14C13.4698 12.0008 12.9616 12.2118 12.5867 12.5867C12.2118 12.9616 12.0008 13.4698 12 14V30C12.0008 30.5302 12.2118 31.0384 12.5867 31.4133C12.9616 31.7882 13.4698 31.9992 14 32V32ZM176 44H28V144H176V44Z" fill="#F4ACB7"/>
</svg>
